<svg width="102" height="90" viewBox="0 0 102 90" fill="none" xmlns="http://www.w3.org/2000/svg">
<path d="M101.856 44.9121C101.856 48.0762 99.2022 50.5547 96.195 50.5547H90.5344L90.6582 78.6973C90.6759 84.9375 85.5991 90 79.337 90H22.6601C16.4069 90 11.3371 84.9551 11.3371 78.75V50.5547H5.66946C2.48006 50.5547 0 48.0762 0 44.9121C0 43.3301 0.53139 41.9238 1.77071 40.6934L47.1246 1.40906C48.3629 0.176133 49.778 0 51.0163 0C52.2545 0 53.6697 0.352266 54.7487 1.23293L99.9098 40.6934C101.325 41.9238 102.05 43.3301 101.856 44.9121ZM58.0213 40.7812V30.9375C58.0213 29.3906 56.7476 28.125 55.191 28.125H46.7001C45.1434 28.125 43.8697 29.3906 43.8697 30.9375V40.7812H33.9637C32.407 40.7812 31.1334 42.0469 31.1334 43.5938V52.0312C31.1334 53.5781 32.407 54.8438 33.9637 54.8438H43.8697V64.6875C43.8697 66.2344 45.1434 67.5 46.7001 67.5H55.191C56.7476 67.5 58.0213 66.2344 58.0213 64.6875V54.8438H67.9274C69.484 54.8438 70.7577 53.5781 70.7577 52.0312V43.5938C70.7577 42.0469 69.484 40.7812 67.9274 40.7812H58.0213Z" fill="white"/>
</svg>
