<svg width="92" height="90" viewBox="0 0 92 90" fill="none" xmlns="http://www.w3.org/2000/svg">
<path fill-rule="evenodd" clip-rule="evenodd" d="M17.5423 14.9559C17.6847 13.1816 18.147 11.4974 18.8692 9.95806H0V16.1578L9.99559 23.7295V90.0002H79.9647V23.817L91.2098 16.2453V9.95557H46.1022C46.8268 11.4949 47.2866 13.1791 47.4316 14.9534H84.1804L74.9669 21.1606V85H14.9934V21.2481L6.68705 14.9559H17.5398H17.5423Z" fill="white"/>
<path fill-rule="evenodd" clip-rule="evenodd" d="M9.99529 19.3665L3.74805 11.2451H18.1167L26.2381 27.488H37.4832L46.2293 11.2451H87.4611L79.9644 21.2407V87.4615H69.9688V44.9802H49.9777V87.4615H9.99529V19.3665ZM19.9909 44.9802H37.4832V62.4725H19.9909V44.9802Z" fill="white"/>
<path d="M0 87.4618C0 88.1245 0.263276 88.7601 0.731911 89.2288C1.20054 89.6974 1.83615 89.9607 2.4989 89.9607H87.4614C88.1242 89.9607 88.7598 89.6974 89.2284 89.2288C89.697 88.7601 89.9603 88.1245 89.9603 87.4618C89.9603 86.799 89.697 86.1634 89.2284 85.6948C88.7598 85.2262 88.1242 84.9629 87.4614 84.9629H2.4989C1.83615 84.9629 1.20054 85.2262 0.731911 85.6948C0.263276 86.1634 0 86.799 0 87.4618Z" fill="white"/>
<path fill-rule="evenodd" clip-rule="evenodd" d="M47.479 14.9934C47.479 16.9623 47.0911 18.912 46.3377 20.7311C45.5842 22.5502 44.4798 24.203 43.0875 25.5953C41.6952 26.9876 40.0424 28.092 38.2233 28.8455C36.4042 29.599 34.4545 29.9868 32.4856 29.9868C30.5166 29.9868 28.5669 29.599 26.7479 28.8455C24.9288 28.092 23.2759 26.9876 21.8836 25.5953C20.4914 24.203 19.387 22.5502 18.6335 20.7311C17.88 18.912 17.4922 16.9623 17.4922 14.9934C17.4922 11.0169 19.0718 7.20327 21.8836 4.39146C24.6955 1.57966 28.5091 0 32.4856 0C36.4621 0 40.2757 1.57966 43.0875 4.39146C45.8993 7.20327 47.479 11.0169 47.479 14.9934V14.9934ZM34.9845 7.49669V12.4945H39.9823V17.4923H34.9845V22.4901H29.9867V17.4923H24.9889V12.4945H29.9867V7.49669H34.9845Z" fill="white"/>
</svg>
